<?xml version="1.0" encoding="UTF-8" standalone="no"?>
<svg
   width="1187"
   height="1187"
   version="1.1"
   id="svg48"
   sodipodi:docname="a-walrus-on-a-skateboard.svg"
   inkscape:version="1.3.2 (091e20ef0f, 2023-11-25)"
   inkscape:export-filename="a-walrus-on-a-skateboard.png"
   inkscape:export-xdpi="96"
   inkscape:export-ydpi="96"
   xmlns:inkscape="http://www.inkscape.org/namespaces/inkscape"
   xmlns:sodipodi="http://sodipodi.sourceforge.net/DTD/sodipodi-0.dtd"
   xmlns="http://www.w3.org/2000/svg"
   xmlns:svg="http://www.w3.org/2000/svg">
  <sodipodi:namedview
     id="namedview48"
     pagecolor="#ffffff"
     bordercolor="#000000"
     borderopacity="0.25"
     inkscape:showpageshadow="2"
     inkscape:pageopacity="0.0"
     inkscape:pagecheckerboard="0"
     inkscape:deskcolor="#d1d1d1"
     inkscape:zoom="1.0544052"
     inkscape:cx="392.63842"
     inkscape:cy="544.38274"
     inkscape:window-width="1452"
     inkscape:window-height="1200"
     inkscape:window-x="897"
     inkscape:window-y="139"
     inkscape:window-maximized="0"
     inkscape:current-layer="svg48"
     inkscape:export-bgcolor="#ffffff35" />
  <path
     fill="#FEFEFE"
     transform="scale(1.15918 1.15918)"
     d="M0 0L1024 0L1024 1024L0 1024L0 0Z"
     id="path1" />
  <path
     transform="scale(1.15918 1.15918)"
     d="M561.762 45.7035C577.955 44.1788 597.238 47.0103 612.769 51.2797C632.887 56.8103 652.328 66.2666 667.176 81.1955C671.737 85.7816 675.148 91.8307 680.107 95.9308C682.683 98.061 686.433 99.3667 689.41 100.899C698.951 105.809 706.647 112.637 711.918 122.078C720.777 137.947 719.716 155.183 714.923 172.149C733.854 182.913 743.7 193.828 755.957 211.396Q766.385 208.511 777.004 206.44Q787.623 204.37 798.371 203.126C841.284 198.285 888.157 203.293 928.15 219.987C935.338 222.987 943.221 225.966 949.352 230.85C937.316 226.381 925.92 220.804 913.547 217.178C866.35 203.344 805.144 201.674 757.68 214.973C761.561 223.671 764.65 232.479 767.697 241.491Q776.067 241.45 784.434 241.649C822.122 242.71 857.59 255.379 889.005 275.937C897.684 281.617 906.247 287.561 913.402 295.131C903.589 288.673 893.993 281.923 883.803 276.061C847.893 255.405 809.479 245.724 768.206 245.027C772.398 263.892 773.6 283.727 765.813 301.876C757.576 321.074 742.89 329.581 724.316 336.927C719.923 353.609 712.717 367.926 702.122 381.457C705.781 385.611 709.203 389.787 711.073 395.084C714.564 404.968 712.018 413.409 707.649 422.514C720.924 441.419 730.388 461.105 736.185 483.491C743.574 512.031 747.763 546.303 737.67 574.58C736.503 577.847 735.39 581.192 733.623 584.193C735.075 595.56 735.277 606.183 729.068 616.277C723.207 625.804 715.126 630.039 704.523 632.603Q702.046 640.703 699.346 648.731C700.361 650.302 701.27 651.893 702.082 653.577C721.153 693.102 708.896 747.141 695.06 786.684C715.064 792.427 725.613 801.921 736.663 819.159C748.589 820.601 760.753 820.413 772.741 821.122C786.121 821.913 817.854 825.828 829.597 823.411C837.093 821.867 844.692 817.453 851.796 814.558C866.671 808.496 881.46 802.02 896.155 795.528C917.481 786.105 940.879 773.721 964.565 772.581C973.13 772.168 982.829 773.492 989.323 779.622C991.89 782.045 993.501 785.127 993.525 788.703C993.597 799.616 982.75 810.507 975.614 817.655C932.339 861.008 852.233 891.144 792.448 899.303C768.533 902.566 744.073 902.486 719.986 902.544C722.134 909.875 722.963 915.551 722.137 923.154C719.871 932.293 715.099 940.092 707.24 945.458C697.819 951.889 687.777 952.544 676.851 950.442Q676.532 951.869 676.082 953.26C671.787 966.766 662.466 977.309 649.821 983.642C635.291 990.919 617.069 992.004 601.694 986.853C590.139 982.981 579.699 975.947 574.177 964.797C569.09 954.524 568.477 941.993 572.238 931.191C577.661 915.618 588.856 908.216 603.049 901.346C573.672 900.182 544.27 900.168 514.888 899.253Q417.245 896.225 319.723 890.5C318.286 898.53 316.278 905.229 311.2 911.751C300.539 925.444 285.281 929.364 268.835 931.39Q268.66 932.456 268.44 933.514Q268.219 934.571 267.952 935.618Q267.685 936.665 267.372 937.7Q267.06 938.734 266.703 939.753Q266.346 940.773 265.944 941.776Q265.543 942.779 265.098 943.764Q264.653 944.749 264.166 945.713Q263.679 946.677 263.15 947.619Q262.621 948.561 262.051 949.479Q261.482 950.397 260.873 951.29Q260.263 952.182 259.616 953.047Q258.968 953.912 258.284 954.748Q257.599 955.583 256.879 956.389Q256.158 957.194 255.403 957.967Q254.648 958.74 253.86 959.479Q253.072 960.218 252.253 960.922C240.945 970.583 224.487 975.562 209.712 974.31C196.872 973.222 184.373 966.986 176.116 957.043Q175.253 956.007 174.442 954.93Q173.631 953.853 172.875 952.737Q172.118 951.621 171.418 950.469Q170.717 949.317 170.075 948.132Q169.432 946.947 168.849 945.732Q168.265 944.516 167.743 943.273Q167.22 942.031 166.76 940.763Q166.3 939.496 165.902 938.208Q165.505 936.92 165.172 935.613Q164.839 934.307 164.571 932.986Q164.303 931.665 164.1 930.332Q163.898 928.999 163.762 927.657Q163.625 926.316 163.555 924.97Q163.486 923.624 163.482 922.275Q163.479 920.927 163.543 919.581Q163.606 918.234 163.736 916.892C165.203 901.768 172.367 892.204 183.865 882.845C156.733 879.662 129.189 878.509 101.943 876.529C85.0828 875.304 67.3371 874.568 50.9432 870.209C46.0319 868.903 41.1758 867.13 37.5298 863.43C33.4782 859.318 31.4654 853.282 31.6118 847.563C31.7877 840.696 35.0264 834.947 39.9871 830.356C54.4431 816.976 98.5789 797.342 118.061 791.126Q122.453 789.698 126.961 788.693Q131.468 787.689 136.051 787.117C151.495 785.244 167.074 787.469 182.528 788.021C182.105 786.031 181.679 784.034 181.442 782.012C181.018 778.381 180.879 774.448 182.293 771.008C186.49 760.802 200.749 751.837 208.677 744.423Q215.522 737.94 221.244 730.448C240.987 704.955 247.629 674.191 243.663 642.472C237.846 646.932 231.997 650.605 224.826 652.449C208.896 656.544 191.796 651.838 177.992 643.585Q176.568 642.731 175.188 641.807Q173.808 640.884 172.475 639.894Q171.143 638.903 169.86 637.848Q168.578 636.793 167.349 635.677Q166.121 634.56 164.949 633.384Q163.776 632.207 162.664 630.975Q161.551 629.742 160.501 628.457Q159.45 627.171 158.464 625.834Q157.478 624.498 156.56 623.115Q155.641 621.732 154.792 620.305Q153.942 618.879 153.164 617.412Q152.386 615.945 151.682 614.441Q150.977 612.938 150.347 611.401Q149.718 609.865 149.165 608.299Q148.612 606.734 148.136 605.143Q147.661 603.552 147.265 601.939C143.46 586.409 144.938 568.418 153.361 554.597Q153.982 553.582 154.652 552.599Q155.322 551.615 156.039 550.666Q156.756 549.716 157.519 548.803Q158.282 547.89 159.089 547.015Q159.896 546.141 160.744 545.306Q161.593 544.472 162.481 543.681Q163.37 542.889 164.296 542.142Q165.222 541.395 166.184 540.694Q167.145 539.993 168.14 539.34Q169.135 538.687 170.16 538.084Q171.186 537.481 172.24 536.928Q173.294 536.376 174.374 535.875Q175.453 535.375 176.556 534.929Q177.659 534.482 178.782 534.09Q179.906 533.698 181.047 533.361Q182.189 533.024 183.345 532.744C201.688 528.352 216.954 536.245 232.152 545.629C239.009 517.631 250.425 492.423 266.089 468.23C271.464 459.927 277.717 452.172 282.871 443.738C288.914 433.849 293.134 422.979 298.797 412.876C310.995 391.114 328.182 372.424 346.286 355.473C343.61 351.545 341.163 347.293 339.879 342.689Q339.714 342.115 339.578 341.533Q339.442 340.951 339.336 340.363Q339.23 339.776 339.154 339.183Q339.078 338.59 339.032 337.995Q338.987 337.399 338.972 336.802Q338.957 336.204 338.972 335.607Q338.988 335.01 339.034 334.414Q339.08 333.818 339.156 333.226Q339.232 332.633 339.339 332.045Q339.445 331.458 339.582 330.876Q339.718 330.294 339.884 329.72Q340.05 329.146 340.245 328.582Q340.44 328.017 340.664 327.463Q340.887 326.909 341.139 326.367Q341.391 325.825 341.669 325.297Q341.948 324.768 342.254 324.255C349.19 312.34 363.523 307.401 376.093 304.203C378.122 297.513 378.792 290.441 380.093 283.583C382.051 273.26 384.505 262.875 387.142 252.702C390.1 241.286 393.435 229.797 397.156 218.61C400.94 207.231 405.196 195.97 408.551 184.456C407.482 184.165 406.381 183.862 405.346 183.464C401.851 182.117 399.007 178.649 397.675 175.224C396.062 171.079 396.354 166.517 398.254 162.522C402.038 154.565 409.927 152.029 417.642 149.421C423.384 130.722 430.714 117.218 443.2 102.269C474.554 64.7333 514.389 50.0461 561.762 45.7035Z"
     id="path2" />
  <path
     fill="#B57F47"
     transform="scale(1.15918 1.15918)"
     d="M670.693 381.997C672.02 386.271 674.566 390.699 674.76 395.136C674.543 395.122 674.325 395.066 674.11 395.095C673.08 395.231 672.912 395.59 671.783 395.406C670.907 393.567 669.935 391.697 669.263 389.774C668.066 386.347 669.217 385.16 670.693 381.997Z"
     id="path3" />
  <path
     fill="#FEFEFE"
     transform="scale(1.15918 1.15918)"
     d="M652.246 124.97C654.009 125.355 655.487 125.796 656.64 127.331C657.473 128.439 657.875 129.838 657.681 131.214C657.388 133.305 656.257 134.512 654.66 135.767L654.423 135.73C652.673 135.48 651.452 135.287 650.338 133.727C649.405 132.419 648.992 130.868 649.268 129.271C649.624 127.206 650.586 126.14 652.246 124.97Z"
     id="path4" />
  <path
     fill="#DAA467"
     transform="scale(1.15918 1.15918)"
     d="M661.17 903.701C666.84 903.338 672.526 903.37 678.205 903.327C675.578 904.829 672.771 906.115 670.068 907.484C667.97 908.487 665.843 909.234 663.645 909.976L654.131 904.316L661.17 903.701Z"
     id="path5" />
  <path
     fill="#5A3511"
     transform="scale(1.15918 1.15918)"
     d="M257.315 887.349Q272.303 888.154 287.304 888.679C285.616 892.017 283.383 894.989 280.989 897.844C277.339 901.309 272.677 902.84 267.98 904.269C264.759 898.312 261.509 892.699 257.315 887.349Z"
     id="path6" />
  <path
     fill="#5A3511"
     transform="scale(1.15918 1.15918)"
     d="M682.076 910.57C684.333 910.408 686.803 910.121 688.945 911.033C692.457 912.529 693.604 916.232 694.786 919.535C694.611 920.301 694.435 921.057 694.218 921.811C692.968 926.154 690.601 929.393 686.585 931.564C684.542 932.668 679.078 935.101 676.83 934.437L676.391 933.335C673.526 924.331 669.409 917.729 663.16 910.651C667.179 912.105 671.161 913.565 675.311 914.617L682.076 910.57Z"
     id="path7" />
  <path
     fill="#52B1DB"
     transform="scale(1.15918 1.15918)"
     d="M606.264 121.7C612.007 120.97 618.117 121.738 623.782 122.73C622.594 128.841 622.278 134.32 623.184 140.489Q617.845 140.824 612.502 141.072C608.205 141.487 603.888 141.693 599.579 141.945C598.587 135.364 596.727 129.085 594.828 122.725C598.642 122.441 602.455 122.044 606.264 121.7Z"
     id="path8" />
  <path
     fill="#DAA467"
     transform="scale(1.15918 1.15918)"
     d="M714.143 587.504C719.004 588.338 723.509 588.311 728.425 588.08Q728.54 591.166 728.423 594.252C728.058 604.993 724.614 612.954 716.746 620.286C713.434 622.811 709.973 624.308 706.126 625.81C710.231 613.355 711.741 600.343 714.143 587.504Z"
     id="path9" />
  <path
     fill="#FEFEFE"
     transform="scale(1.15918 1.15918)"
     d="M694.087 337.304C701.776 338.72 708.992 339.192 716.795 338.933C713.335 349.402 709.364 359.203 704.01 368.869C701.313 372.994 698.525 376.473 694.902 379.83C687.658 366.712 691.678 351.209 694.087 337.304Z"
     id="path10" />
  <path
     fill="#5A3511"
     transform="scale(1.15918 1.15918)"
     d="M712.94 902.734L713.617 902.78C713.73 902.921 713.856 903.052 713.956 903.203C716.877 907.61 717.312 916.461 716.451 921.539C715.193 928.96 711.2 935.457 705.03 939.806C698.775 944.214 687.977 947.07 680.418 945.368C678.923 945.032 678.263 944.398 677.475 943.139C677.43 941.852 677.429 941.077 677.9 939.847C678.088 939.817 678.277 939.792 678.465 939.758C685.715 938.465 692.969 935.886 697.185 929.434C699.537 925.833 700.654 921.276 699.659 917.039C698.122 910.497 692.757 906.912 687.469 903.516C695.783 902.505 704.563 902.875 712.94 902.734Z"
     id="path11" />
  <path
     fill="#5A3511"
     transform="scale(1.15918 1.15918)"
     d="M292.77 888.991C299.69 890.191 307.346 890.066 314.387 890.473C313.625 893.781 312.818 897.015 311.506 900.155C306.687 911.681 298.207 918.172 286.874 922.776C281.35 924.532 275.723 925.395 270.005 926.218C270.126 920.115 269.569 914.28 268.755 908.245C272.569 907.589 276.36 906.815 279.872 905.128C286.93 901.738 290.276 896.063 292.77 888.991Z"
     id="path12" />
  <path
     fill="#52b1db"
     d="m 697.683,385.804 c 0.463,0.017 0.446,-0.01 0.996,0.183 2.751,0.961 4.668,3.631 5.764,6.213 2.977,7.012 3.297,16.01 0.221,23.002 -4.203,9.548 -16.927,15.516 -25.958,19.09 -1.19794,0.38875 -9.09048,2.32743 -17.88519,3.14921 -10.6384,0.99406 -22.48607,0.88099 -23.96579,1.24504 2.4757,-5.37986 -38.68505,-15.69798 -30.7347,-14.74501 5.31771,0.63741 14.95162,-1.44425 22.69617,-2.13777 11.06344,-0.99073 17.53453,-3.96113 26.20691,-6.45993 3.49003,-1.98483 20.6166,-12.06654 21.7716,-13.46954 1.719,-2.087 17.166,-13.009 20.888,-16.07 z"
     id="path13"
     sodipodi:nodetypes="cccccscssccc"
     transform="scale(1.15918)" />
  <path
     fill="#FEFEFE"
     transform="scale(1.15918 1.15918)"
     d="M598.959 341.74C601.127 346.748 593.888 366.628 591.734 372.151C589.212 378.62 585.406 387.645 578.467 390.368C577.305 390.824 576.056 390.9 574.95 390.223C572.626 388.8 572.126 385.873 571.648 383.433C570.221 369.382 568.342 356.509 563.509 343.153C575.366 344.236 587.166 342.892 598.959 341.74Z"
     id="path14" />
  <path
     fill="#FEFEFE"
     transform="scale(1.15918 1.15918)"
     d="M661.27 157.211C667.784 156.919 677.867 157.191 683.238 161.337C684.568 162.363 685.491 163.692 685.649 165.397C685.887 167.967 684.274 170.542 682.595 172.34C675.273 180.184 660.363 182.035 650.247 182.513C642.855 182.59 631.668 182.492 625.822 177.132C624.616 176.026 623.957 174.743 623.919 173.079C623.872 171.023 625.443 168.767 626.769 167.337C634.581 158.908 650.603 157.769 661.27 157.211Z"
     id="path15" />
  <path
     fill="#52B1DB"
     transform="scale(1.15918 1.15918)"
     d="M484.352 134.075L485.097 134.129C485.388 135.194 485.42 134.805 485.204 135.815C483.823 142.245 483.017 147.93 483.564 154.509Q459.834 160.873 436.634 168.961C428.699 171.704 420.546 175.512 412.364 177.351C410.145 177.849 408.764 177.883 406.627 177.105C405.121 175.693 403.532 174.063 402.937 172.036Q402.78 171.485 402.682 170.921Q402.583 170.357 402.544 169.786Q402.505 169.215 402.525 168.643Q402.546 168.071 402.626 167.504Q402.706 166.937 402.845 166.381Q402.984 165.826 403.18 165.288Q403.376 164.75 403.627 164.235Q403.878 163.721 404.181 163.235C405.631 160.888 407.524 159.194 409.946 157.904C417.075 154.108 425.759 152.218 433.433 149.688C450.216 144.156 467.082 137.892 484.352 134.075Z"
     id="path16" />
  <path
     fill="#6E7F92"
     transform="scale(1.15918 1.15918)"
     d="M705.867 431.331C708.742 434.34 710.806 438.899 712.576 442.633C732.452 484.58 746.177 531.794 729.811 577.486C729.36 578.266 728.936 579.069 728.243 579.667C724.905 582.555 718.904 581.916 714.811 581.834Q715.632 574.698 716.213 567.538Q716.794 560.378 717.135 553.203Q717.475 546.028 717.575 538.845Q717.674 531.662 717.532 524.48Q717.39 517.298 717.007 510.125Q716.624 502.952 716 495.796Q715.377 488.64 714.513 481.508Q713.65 474.377 712.547 467.279C710.772 455.216 707.464 443.416 705.867 431.331Z"
     id="path17" />
  <path
     fill="#daa467"
     transform="scale(1.15918)"
     d="m 656.592,309.098 c 11.605,12.234 16.499,20.231 33.047,27.039 -3.38,13.01 -8.31,31.057 -1.152,43.634 0.952,1.673 2.234,3.202 3.588,4.567 -3.085,3.025 -12.0008,10.06444 -16.821,10.859 -8.90292,5.75045 -3.407,1.70232 -3.572,1.68232 -10.15872,4.17616 0.338,-10.60832 -0.989,-14.88232 -0.819,-3.394 -0.983,-8.735 -3.126,-11.558 l -1.88513,17.54185 c -1.907,1.653 -1.68487,-13.56885 -2.52687,-11.25285 -5.53,-8.467 -11.169,-17.32 -15.926,-26.241 6.414,-0.037 26.483,0.69 30.983,-4.122 0.82,-0.876 0.789,-1.303 0.911,-2.44 -0.609,-0.911 -0.26,-0.774 -1.195,-0.967 -3.265,-0.674 -14.903,2.959 -19.509,3.324 -7.178,0.568 -50.287,-1.199 -54.378,-5.095 0.3,-0.455 0.325,-0.55 0.812,-0.948 4.117,-3.37 18.209,-6.521 24.363,-9.887 10.429,-5.705 18.196,-13.973 27.376,-21.254 z"
     id="path18"
     sodipodi:nodetypes="ccsccccccccccsccccc" />
  <path
     fill="#FEFEFE"
     transform="scale(1.15918 1.15918)"
     d="M663.598 99.1882C670.72 99.034 677.456 100.359 683.955 103.304Q685.073 103.807 686.164 104.365Q687.255 104.923 688.318 105.535Q689.38 106.147 690.41 106.811Q691.44 107.475 692.436 108.19Q693.432 108.904 694.391 109.668Q695.35 110.431 696.27 111.242Q697.189 112.052 698.067 112.907Q698.945 113.763 699.78 114.661Q700.614 115.559 701.402 116.497Q702.191 117.436 702.932 118.413Q703.672 119.389 704.363 120.402Q705.054 121.414 705.694 122.46Q706.333 123.505 706.92 124.582Q707.506 125.658 708.039 126.762Q708.571 127.866 709.047 128.996Q709.523 130.125 709.943 131.277Q710.386 132.466 710.771 133.675Q711.156 134.884 711.481 136.111Q711.806 137.337 712.071 138.578Q712.336 139.819 712.539 141.072Q712.743 142.324 712.886 143.585Q713.028 144.846 713.109 146.112Q713.189 147.378 713.208 148.647Q713.227 149.916 713.183 151.184Q713.14 152.452 713.034 153.717Q712.929 154.981 712.762 156.239Q712.595 157.497 712.367 158.745Q712.138 159.993 711.849 161.229Q711.56 162.464 711.211 163.684Q710.862 164.904 710.454 166.106Q710.046 167.307 709.579 168.487Q709.113 169.667 708.589 170.823C706.15 170.046 703.635 169.584 701.132 169.065C699.621 166.628 697.667 164.262 695.648 162.227C684.888 151.384 671.111 151.499 656.852 151.45L658.612 148.009C660.506 143.948 662.022 139.801 662.109 135.255C662.183 131.393 661.115 127.42 658.261 124.678Q657.864 124.292 657.428 123.949Q656.993 123.607 656.524 123.311Q656.056 123.015 655.559 122.77Q655.063 122.524 654.543 122.331Q654.024 122.139 653.487 122.001Q652.951 121.863 652.403 121.781Q651.855 121.7 651.302 121.675Q650.748 121.651 650.195 121.684Q649.634 121.713 649.08 121.798Q648.525 121.883 647.982 122.024Q647.438 122.165 646.912 122.359Q646.385 122.554 645.881 122.801Q645.377 123.048 644.901 123.345Q644.424 123.641 643.98 123.984Q643.536 124.327 643.129 124.714Q642.721 125.1 642.355 125.525C639.357 128.999 638.724 133.859 638.954 138.287C639.255 144.07 641.337 148.188 645.611 152.024C641.691 152.719 637.831 153.756 633.97 154.717C630.356 149.353 627.314 142.704 626.634 136.214C625.766 127.935 628.622 119.64 633.834 113.227C641.32 104.016 652.121 100.315 663.598 99.1882Z"
     id="path19" />
  <path
     fill="#DAA467"
     transform="scale(1.15918 1.15918)"
     d="M404.364 584.089C409.146 585.814 413.838 588.24 418.233 590.783C427.093 595.911 434.123 601.995 436.812 612.19C436.557 613.311 436.281 614.427 435.905 615.514C433.857 621.44 429.473 624.508 424.063 627.097C419.042 620.333 414.051 615.37 406.821 611.011C410.28 615.936 414.12 620.862 417.168 626.037C420.746 632.11 422.844 639.479 420.836 646.452C418.737 653.743 412.877 657.461 406.673 660.952C404.848 656.951 402.896 652.984 400.919 649.056C399.2 645.64 391.328 629.97 388.328 628.984C387.078 634.011 399.489 656.836 402.449 663.021C397.208 665.478 391.835 666.99 386.086 667.584C384.491 667.589 382.817 667.576 381.246 667.287C369.185 665.074 367.478 646.958 361.565 638.606L360.936 638.503C359.97 647.48 366.186 657.927 370.386 665.496C368.733 666.199 367.033 666.971 365.29 667.415C358.984 669.021 352.815 668.226 347.197 664.907C330.138 654.829 322.548 629.93 318.204 611.951C349.596 609.968 378.18 602.13 404.364 584.089Z"
     id="path20" />
  <path
     fill="#87521B"
     transform="scale(1.15918 1.15918)"
     d="M620.816 902.679C620.979 902.651 621.14 902.613 621.304 902.594C633.123 901.19 646.992 906.138 656.292 913.28C664.25 919.393 669.745 928.019 671.041 938.042Q671.161 938.985 671.234 939.934Q671.308 940.882 671.334 941.832Q671.361 942.783 671.34 943.734Q671.32 944.684 671.253 945.633Q671.185 946.582 671.071 947.526Q670.957 948.47 670.797 949.407Q670.637 950.345 670.43 951.273Q670.224 952.201 669.972 953.118Q669.72 954.035 669.423 954.939Q669.126 955.842 668.785 956.73Q668.444 957.618 668.059 958.487Q667.675 959.357 667.248 960.207Q666.821 961.057 666.353 961.885Q665.885 962.712 665.376 963.516Q664.867 964.319 664.32 965.097Q663.772 965.875 663.187 966.624C654.468 977.916 641.855 982.628 628.125 984.462C614.787 985.238 601.271 983.336 590.28 975.186C582.215 969.206 577.345 960.761 575.973 950.835Q575.833 949.85 575.743 948.86Q575.652 947.87 575.61 946.877Q575.568 945.883 575.574 944.889Q575.581 943.895 575.637 942.902Q575.693 941.909 575.797 940.92Q575.902 939.932 576.055 938.949Q576.208 937.967 576.409 936.993Q576.611 936.019 576.859 935.057Q577.108 934.094 577.404 933.145Q577.7 932.195 578.043 931.262Q578.385 930.328 578.773 929.413Q579.161 928.497 579.593 927.602Q580.025 926.707 580.501 925.833Q580.977 924.96 581.495 924.112Q582.014 923.263 582.573 922.441Q583.133 921.619 583.732 920.826C592.749 909.083 606.709 904.627 620.816 902.679Z"
     id="path21" />
  <path
     transform="scale(1.15918 1.15918)"
     d="M615.825 913.66C623.068 912.696 631.204 914.765 637.318 918.678Q638.001 919.115 638.662 919.585Q639.323 920.056 639.96 920.558Q640.597 921.061 641.208 921.595Q641.819 922.128 642.402 922.692Q642.986 923.255 643.541 923.846Q644.096 924.438 644.621 925.057Q645.146 925.675 645.64 926.319Q646.134 926.962 646.595 927.63Q647.056 928.297 647.483 928.987Q647.91 929.676 648.303 930.386Q648.695 931.096 649.052 931.825Q649.409 932.553 649.729 933.299Q650.049 934.044 650.332 934.804Q650.615 935.565 650.86 936.338Q651.104 937.112 651.31 937.896Q651.516 938.681 651.683 939.475C653.276 947.241 651.691 956.101 647.128 962.626C641.61 970.516 633.292 974.242 624.099 975.973C615.142 976.554 606.711 974.974 599.283 969.686C592.572 964.907 588.464 957.602 587.137 949.551C585.835 941.648 587.436 933.447 592.193 926.92C597.914 919.072 606.417 915.065 615.825 913.66Z"
     id="path22" />
  <path
     fill="#CAC6AD"
     transform="scale(1.15918 1.15918)"
     d="M617.065 917.648C622.721 917.454 628.208 918.637 633.122 921.492Q633.761 921.866 634.379 922.272Q634.998 922.678 635.596 923.115Q636.193 923.552 636.768 924.019Q637.342 924.486 637.893 924.981Q638.443 925.476 638.967 925.998Q639.492 926.521 639.989 927.069Q640.486 927.617 640.955 928.19Q641.424 928.763 641.863 929.359Q642.302 929.954 642.711 930.572Q643.119 931.189 643.496 931.826Q643.873 932.463 644.217 933.119Q644.561 933.774 644.871 934.446Q645.181 935.118 645.457 935.805Q645.733 936.492 645.974 937.192Q646.214 937.892 646.419 938.603Q646.624 939.314 646.793 940.035C648.325 946.764 647.248 953.959 643.431 959.758C638.625 967.057 631.074 969.89 622.928 971.521C615.543 971.724 608.835 970.743 602.601 966.384Q602.06 966.005 601.538 965.6Q601.017 965.195 600.516 964.765Q600.014 964.335 599.535 963.881Q599.055 963.427 598.599 962.95Q598.142 962.473 597.709 961.975Q597.276 961.476 596.868 960.956Q596.46 960.437 596.079 959.898Q595.697 959.359 595.342 958.802Q594.987 958.246 594.659 957.672Q594.332 957.099 594.033 956.51Q593.734 955.921 593.465 955.318Q593.195 954.715 592.955 954.1Q592.716 953.484 592.506 952.858Q592.297 952.232 592.119 951.596Q591.94 950.96 591.793 950.316Q591.646 949.672 591.531 949.022C590.325 942.187 591.629 935.105 595.697 929.424C600.935 922.112 608.517 918.954 617.065 917.648Z"
     id="path23" />
  <path
     transform="scale(1.15918 1.15918)"
     d="M617.819 938.467C620.329 938.553 622.861 939.09 624.669 940.985C625.714 942.081 626.218 943.397 626 944.911C625.682 947.111 624.141 948.226 622.537 949.54C620.507 949.584 618.654 949.426 616.929 948.239C615.67 947.373 614.866 946.108 614.76 944.562C614.587 942.027 616.187 940.178 617.819 938.467Z"
     id="path24" />
  <path
     fill="#87521B"
     transform="scale(1.15918 1.15918)"
     d="M193.224 884.001Q220.038 885.185 246.838 886.664C251.036 892.043 254.969 897.449 257.877 903.659C263.126 914.868 264.535 928.427 260.171 940.174C255.744 952.092 246.471 959.533 235.179 964.644C225.563 968.886 213.432 970.377 203.191 967.766C191.186 964.706 181.108 956.11 174.933 945.518C168.962 935.274 167.039 922.334 170.223 910.858C173.794 897.987 181.951 890.41 193.224 884.001Z"
     id="path25" />
  <path
     transform="scale(1.15918 1.15918)"
     d="M207.124 891.115C214.536 890.376 221.02 891.229 227.439 895.243Q228.2 895.728 228.936 896.249Q229.672 896.771 230.382 897.327Q231.091 897.884 231.773 898.474Q232.455 899.065 233.107 899.688Q233.759 900.311 234.38 900.965Q235.002 901.619 235.59 902.303Q236.178 902.986 236.733 903.698Q237.287 904.409 237.807 905.147Q238.326 905.885 238.808 906.647Q239.291 907.409 239.736 908.193Q240.181 908.978 240.587 909.784Q240.993 910.589 241.359 911.413Q241.725 912.237 242.051 913.079Q242.377 913.92 242.661 914.776Q242.946 915.632 243.188 916.501Q243.43 917.369 243.63 918.249C245.421 926.141 244.429 934.459 239.96 941.344C235.261 948.583 228.49 951.966 220.351 953.833C212.329 955.269 203.975 954.059 197.007 949.715C189.933 945.303 185.456 938.321 183.631 930.273C181.612 921.368 182.708 911.504 187.701 903.729C192.408 896.4 198.896 892.966 207.124 891.115Z"
     id="path26" />
  <path
     fill="#CAC6AD"
     transform="scale(1.15918 1.15918)"
     d="M207.004 895.095C212.705 894.556 217.754 895.048 222.89 897.851C230.401 901.95 235.732 909.416 238.097 917.552C240.087 924.398 239.834 931.805 236.237 938.097C232.464 944.695 226.331 947.963 219.253 949.889Q218.084 950.112 216.9 950.231Q215.716 950.351 214.526 950.366Q213.336 950.381 212.149 950.292Q210.962 950.203 209.787 950.009Q208.613 949.816 207.46 949.521Q206.307 949.225 205.185 948.83Q204.062 948.435 202.979 947.942Q201.895 947.45 200.859 946.864C194.254 943.186 189.673 936.967 187.692 929.72C185.591 922.033 186.537 913.393 190.654 906.523C194.44 900.204 200.016 896.826 207.004 895.095Z"
     id="path27" />
  <path
     transform="scale(1.15918 1.15918)"
     d="M211.476 917.454C211.694 917.437 211.911 917.417 212.129 917.404C214.535 917.256 216.966 917.57 218.778 919.323C219.93 920.437 220.521 921.879 220.471 923.494C220.386 926.172 218.792 927.71 216.981 929.482Q216.511 929.507 216.041 929.525C213.379 929.621 211.371 929.59 209.391 927.579C208.409 926.581 207.921 925.249 207.938 923.856C207.972 921.146 209.615 919.219 211.476 917.454Z"
     id="path28" />
  <path
     fill="#6E7F92"
     transform="scale(1.15918 1.15918)"
     d="M212.584 919.826C213.469 919.983 214.411 920.186 215.252 920.503C216.569 920.998 217.228 921.763 217.843 923.005C217.763 924.831 217.476 925.067 216.457 926.51C215.378 926.611 214.021 926.775 212.989 926.347C211.732 925.826 211.523 925.223 211.041 924.077C211.13 922.25 211.608 921.354 212.584 919.826Z"
     id="path29" />
  <path
     fill="#DAA467"
     transform="scale(1.15918 1.15918)"
     d="M189.705 538.648C190.052 538.591 190.4 538.539 190.751 538.508C206.041 537.185 218.237 544.351 229.608 553.819C226.869 583.202 227.157 607.39 240.76 634.498C239.256 635.933 237.627 637.312 235.977 638.574C226.667 645.69 215.782 646.98 204.462 645.405Q202.71 645.135 200.977 644.762Q199.244 644.39 197.536 643.916Q195.828 643.442 194.151 642.869Q192.474 642.296 190.833 641.625Q189.193 640.954 187.595 640.188Q185.996 639.422 184.446 638.563Q182.895 637.704 181.398 636.756Q179.9 635.808 178.461 634.773Q177.169 633.867 175.923 632.898Q174.678 631.928 173.483 630.897Q172.288 629.866 171.147 628.776Q170.005 627.687 168.92 626.541Q167.835 625.395 166.809 624.196Q165.783 622.997 164.818 621.747Q163.854 620.498 162.954 619.202Q162.053 617.906 161.22 616.566Q160.386 615.226 159.62 613.846Q158.855 612.465 158.16 611.048Q157.465 609.632 156.842 608.181Q156.22 606.731 155.671 605.252Q155.122 603.772 154.648 602.267Q154.174 600.761 153.777 599.234Q153.38 597.706 153.06 596.161Q152.74 594.616 152.498 593.056C150.336 579.965 152.641 565.845 160.569 554.983C167.738 545.16 177.958 540.529 189.705 538.648Z"
     id="path30" />
  <path
     fill="#FEFEFE"
     transform="scale(1.15918 1.15918)"
     d="M538.845 96.6787C541.859 96.2948 545.112 96.3861 548.133 96.6636C562.494 97.9829 576.323 104.718 585.549 115.908C593.443 125.483 596.791 136.189 595.562 148.575C593.53 169.069 575.269 170.017 560.17 176.751C552.168 180.319 545.44 185.012 538.709 190.57C535.586 193.166 532.738 196.07 529.849 198.921C522.225 197.386 515.132 194.611 508.854 189.955Q507.845 189.201 506.874 188.399Q505.904 187.597 504.973 186.749Q504.043 185.9 503.156 185.007Q502.268 184.114 501.425 183.178Q500.583 182.242 499.787 181.267Q498.991 180.291 498.244 179.277Q497.497 178.263 496.8 177.214Q496.104 176.165 495.459 175.084Q494.815 174.002 494.225 172.89Q493.634 171.777 493.099 170.638Q492.564 169.498 492.085 168.333Q491.606 167.169 491.185 165.982Q490.764 164.795 490.401 163.589Q490.039 162.384 489.736 161.161Q489.432 159.939 489.19 158.704Q488.947 157.468 488.765 156.222C486.823 142.933 490.496 129.648 498.567 118.972C508.607 105.692 522.609 98.907 538.845 96.6787Z"
     id="path31" />
  <path
     transform="scale(1.15918 1.15918)"
     d="M531.684 135.574C532.873 135.516 534.184 135.393 535.353 135.647C538.048 136.234 540.542 138.545 541.845 140.892C544.314 145.341 544.418 151.471 542.955 156.257C541.521 160.946 539.216 163.651 534.918 165.893C533.685 165.631 532.436 165.366 531.263 164.893C527.549 163.396 524.852 160.209 523.353 156.553C521.61 152.301 521.303 147.023 523.211 142.771C524.966 138.861 527.756 136.957 531.684 135.574Z"
     id="path32" />
  <path
     fill="#FEFEFE"
     transform="scale(1.15918 1.15918)"
     d="M536.089 140.757C536.94 140.842 537.581 140.946 538.348 141.373C539.424 141.972 540.182 142.826 540.38 144.071C540.726 146.251 539.632 147.656 538.398 149.283C537.876 149.106 537.372 148.926 536.869 148.698C535.645 148.142 534.587 147.288 534.282 145.898C533.845 143.906 535.02 142.284 536.089 140.757Z"
     id="path33" />
  <path
     fill="#52b1db"
     transform="scale(1.15918)"
     d="m 368.681,312.375 c 2.59,0.456 4.818,8.21 6.739,10.921 8.256,11.654 24.009,22.183 36.03,29.937 3.97867,2.53133 8.00267,4.98867 12.072,7.372 4.06933,2.38333 8.181,4.691 12.335,6.923 4.15467,2.23133 8.34867,4.38567 12.582,6.463 4.234,2.07733 8.50467,4.07567 12.812,5.995 4.30733,1.92 8.64833,3.75967 13.023,5.519 4.37533,1.76 8.78167,3.43867 13.219,5.036 4.43667,1.59733 8.90167,3.11233 13.395,4.545 4.49267,1.43267 9.01033,2.782 13.553,4.048 10.05933,2.73667 20.202,5.119 30.428,7.147 9.077,1.724 18.60086,2.39799 27.368,5.31 9.98814,3.31757 29.61688,10.30745 43.69245,10.76226 15.95052,0.51539 21.13984,10.37905 27.11723,15.63754 -8.32933,0.852 -28.80401,1.73187 -37.17068,2.0612 -10.689,0.502 -21.648,0.822 -32.333,0.216 -29.505,-1.674 -66.114,-10.064 -94.275,-18.931 -14.70267,-4.58467 -29.16567,-9.83 -43.389,-15.736 -24.743,-10.465 -75.891,-35.277 -88.406,-59.777 -2.406,-4.709 -3.485,-9.857 -1.691,-14.966 3.358,-9.569 14.467,-14.362 22.899,-18.483 z"
     id="path34"
     sodipodi:nodetypes="cccsccccccccsscccccccc" />
  <defs
     id="defs35">
    <linearGradient
       id="gradient_0"
       gradientUnits="userSpaceOnUse"
       x1="510.37811"
       y1="893.32684"
       x2="513.41663"
       y2="777.14093">
      <stop
         offset="0"
         stop-color="#EDDAB3"
         id="stop34" />
      <stop
         offset="1"
         stop-color="#CACAB9"
         id="stop35" />
    </linearGradient>
  </defs>
  <path
     fill="url(#gradient_0)"
     transform="scale(1.15918 1.15918)"
     d="M987.222 787.382C987.485 788.376 987.54 789.212 987.376 790.226C984.96 805.099 964.539 821.447 952.843 830.369C912.8 860.913 850.932 885.03 801.282 892.967C774.421 897.261 746.783 897.415 719.631 897.445C690.821 897.476 662.059 896.973 633.257 896.567Q472.699 895.064 312.438 885.184C253.125 881.874 193.932 879.121 134.694 874.419C114.196 872.791 93.5046 872.139 73.122 869.38C61.7888 867.846 46.6849 866.462 39.3775 856.859C38.3592 854.813 37.6249 852.572 36.8039 850.439C52.855 857.634 85.9476 859.631 104.106 861.188Q140.353 864.198 176.661 866.355Q320.173 875.598 463.898 880.477Q590.985 886.494 718.159 890.238C790.816 891.861 842.84 884.304 907.471 849.165C926.713 838.703 945.754 826.757 962.537 812.626C971.542 805.044 978.353 795.765 986.815 787.761L987.222 787.382Z"
     id="path35" />
  <path
     fill="#DAA467"
     transform="scale(1.15918 1.15918)"
     d="M558.944 52.2086C567.062 51.3556 575.523 51.806 583.655 52.3826C613.406 54.4921 643.629 64.0641 663.669 87.1619C654.526 83.8419 645.996 81.6601 636.231 83.2813C627.353 84.7554 619.229 88.5455 613.86 95.9507C618.839 93.6923 623.584 91.0156 628.766 89.204C643.464 84.0662 653.922 87.3133 667.386 93.7868C662.527 94.3382 657.614 94.9188 652.879 96.1815C640.363 99.5196 631.414 107.465 625.028 118.538C614.41 116.896 603.739 117.363 593.102 118.564C585.136 107.275 576.049 100.462 563.25 95.3513C549.982 91.3597 537.338 90.7038 524.042 95.0704C506.961 100.68 495.635 113.042 487.614 128.698C466.112 132.704 445.743 141.136 424.787 147.091Q425.821 144.094 427.004 141.153Q428.186 138.212 429.513 135.333Q430.84 132.454 432.309 129.645Q433.778 126.835 435.384 124.102Q436.991 121.37 438.732 118.72Q440.472 116.071 442.343 113.511Q444.213 110.952 446.208 108.488Q448.204 106.025 450.319 103.664C478.228 72.1451 517.233 54.8575 558.944 52.2086Z"
     id="path36" />
  <path
     fill="#FEFEFE"
     transform="scale(1.15918 1.15918)"
     d="M400.04 719.795C412.129 720.962 424.151 724.026 436.275 725.394C479.965 730.322 525.024 731.574 568.769 726.346C577.053 756.412 569.789 784.34 560.133 812.937C543.527 810.718 523.985 810.589 506.984 809.578C488.041 809.36 468.922 807.314 450.02 805.937C413.357 803.266 376.34 800.424 339.595 799.474L326.828 786.124C353.846 772.633 384.183 745.53 400.04 719.795Z"
     id="path37" />
  <path
     fill="#DAA467"
     transform="scale(1.15918 1.15918)"
     d="M696.266 656.451C696.917 657.175 697.373 658.175 697.757 659.061C699.668 663.47 700.389 668.485 701.426 673.154C709.786 710.8 700.432 750.259 687.375 785.654C679.869 785.225 672.459 784.846 664.974 785.82C650.186 787.745 635.641 793.806 626.416 805.865C637.861 801.504 647.761 794.64 660.018 792.435C676.919 789.395 696.312 790.766 710.76 800.803C721.101 807.986 730.461 818.929 732.483 831.737C733.253 836.612 732.827 841.462 729.782 845.513C722.103 855.732 698.237 857.764 686.118 859.281C661.551 862.943 595.232 858.365 574.084 846.617C571.9 845.403 569.266 843.794 567.717 841.824C559.551 831.432 568.226 812.172 571.36 801.273C574.001 792.086 576.437 782.526 577.835 773.064C580.264 756.625 579.084 741.611 574.575 725.698C588.584 723.821 602.19 721.028 615.726 716.922C649.161 706.78 679.348 688.028 696.266 656.451Z"
     id="path38" />
  <path
     fill="#DAA467"
     transform="scale(1.15918 1.15918)"
     d="M248.883 642.363C251.896 644.5 254.616 647.801 257.28 650.393C261.844 654.833 266.614 659.142 271.723 662.949C308.61 690.439 348.445 707.417 392.921 718.303C377.104 743.498 347.181 769.795 319.945 781.935C311.827 777.818 304.16 775.688 295.085 774.856C273.967 772.919 247.3 778.002 230.654 791.878C255.241 781.21 280.013 775.974 306.635 781.97C311.288 783.212 315.609 785.335 319.592 788.024C333.263 797.251 344.09 814.152 347.012 830.378C347.94 835.532 347.54 840.844 344.306 845.165C338.716 852.638 322.115 854.709 313.537 855.786C281.682 859.786 247.723 852.604 222.218 832.662C206.196 820.134 189.5 801.254 187.295 780.098C187.001 777.268 187.051 774.591 188.523 772.081C193.5 763.592 206.677 755.151 214.276 748.325Q222.164 741.187 228.725 732.812Q230.203 730.945 231.595 729.014Q232.988 727.083 234.292 725.092Q235.596 723.1 236.81 721.052Q238.024 719.004 239.145 716.903Q240.266 714.803 241.291 712.654Q242.317 710.506 243.245 708.313Q244.173 706.121 245.002 703.889Q245.83 701.657 246.558 699.391Q247.286 697.124 247.912 694.827Q248.537 692.53 249.059 690.207Q249.581 687.884 249.998 685.54Q250.415 683.196 250.727 680.836Q251.039 678.476 251.244 676.104Q251.45 673.732 251.548 671.353Q251.647 668.974 251.639 666.594Q251.632 664.213 251.517 661.835C251.154 655.317 249.645 648.85 248.883 642.363Z"
     id="path39" />
  <path
     fill="#daa467"
     transform="scale(1.15918)"
     d="m 484.329,160.149 c 1.306,2.005 2.048,5.438 2.899,7.768 1.609,4.407 3.565,8.216 6.224,12.09 7.875,11.469 20.105,20.251 33.839,22.878 -6.569,8.678 -11.776,17.721 -16.247,27.617 -23.134,-0.301 -47.476,4.411 -69.037,12.725 -3.488,1.344 -12.994,4.127 -14.494,7.525 l 0.481,0.719 c 0.81,0.289 1.299,0.214 2.103,-0.008 5.074,-1.403 12.734,-5.172 18.369,-7.082 2.45533,-0.858 4.92767,-1.665 7.417,-2.421 2.48933,-0.75533 4.993,-1.45867 7.511,-2.11 2.51867,-0.652 5.04967,-1.25133 7.593,-1.798 2.54333,-0.546 5.09667,-1.03933 7.66,-1.48 2.564,-0.44067 5.13567,-0.828 7.715,-1.162 2.58,-0.33333 5.16567,-0.61333 7.757,-0.84 2.59133,-0.226 5.18633,-0.39833 7.785,-0.517 2.59867,-0.11867 5.19867,-0.18333 7.8,-0.194 -4.807,13.94 -6.165,26.547 -5.643,41.188 -21.769,6.711 -53.069,19.008 -70.524,33.336 -1.555,1.276 -3.086,2.959 -3.287,5.035 1.784,0.907 5.668,-2.431 7.154,-3.554 19.7,-14.9 43.23,-25.157 66.884,-31.945 1.356,10.022 3.752,20.072 8.202,29.192 9.263,18.983 23.572,27.689 42.955,34.371 8.161,12.208 8.918,24.501 10.63,38.588 0.501,4.119 1.591,12.434 5.223,14.969 1.847,1.29 4.451,0.423 6.491,0.044 2.313,-0.43 4.371,-0.904 6.441,-2.076 10.736,-6.076 14.62,-23.4 17.89,-34.396 1.076,-3.968 1.798,-8.01 2.564,-12.047 11.953,2.439 32.61039,3.30092 44.76839,3.83492 5.491,11.225 11.38397,-6.68897 14.84074,5.40836 6.38066,22.3298 44.03839,19.80459 4.02763,46.24118 -10.98367,5.80886 -7.00769,7.36512 -27.85219,11.41191 -15.54466,2.72967 -8.27805,3.43926 -29.35705,3.42369 -11.18886,-2.17051 -3.79737,-0.26102 -12.78152,-2.27906 -22.417,-8.183 -45.612,-11.696 -68.646,-17.372 -54.883,-13.524 -107.372,-37.785 -149.538,-75.896 5.09,-48.077 20.253,-93.988 35.818,-139.481 8.509,-2.575 16.819,-5.935 25.261,-8.743 14.26667,-4.658 28.63467,-8.97933 43.104,-12.964 z"
     id="path40"
     sodipodi:nodetypes="ccccccccccccccccscccccccccccccccsccccccccc" />
  <path
     fill="#CAC6AD"
     transform="scale(1.15918 1.15918)"
     d="M616.67 145.288L623.878 144.865C625.54 148.696 627.448 152.415 629.311 156.151C620.332 159.646 611.241 163.745 604.636 170.995C599.807 176.295 597.045 182.752 597.465 190.024C597.875 197.121 601.341 203.397 606.615 208.054C618.377 218.439 637.33 220.22 652.294 219.152C668.312 218.009 685.863 213.776 696.728 200.988C703.797 192.667 704.056 184.376 703.207 174.092Q709.096 176.012 714.526 178.991C739.401 192.332 753.333 215.935 761.159 242.249C752.397 242.9 740.98 245.004 733.684 250.224C743.142 248.007 752.41 246.308 762.048 245.1C764.873 259.337 766.309 273.609 763.257 287.957C760.098 302.809 752.831 315.09 739.925 323.415C727.648 331.334 710.919 334.685 696.593 331.503C679.681 327.745 670.11 316.969 661.094 302.942C664.566 297.259 667.971 291.7 670.437 285.485C677.109 268.686 669.204 247.115 662.751 231.388C663.672 239.316 665.398 247.156 666.226 255.087C668.033 272.403 662.791 288.084 652.592 302.041C638.284 321.623 615.245 332.902 591.634 336.534C572.141 339.533 550.282 338.055 533.923 325.973C518.056 314.254 511.804 295.604 508.947 276.832C511.907 276.09 514.746 274.96 517.603 273.9L508.553 273.989C507.751 259.438 509.928 247.442 514.38 233.658C524.965 234.132 535.289 236.486 545.833 237.164C536.381 232.53 525.769 231.734 515.451 230.769C524.549 208.514 541.77 187.431 565.085 179.292C573.697 176.286 583.258 174.285 590.227 168.013C596.772 162.122 599.108 154.544 599.62 146.075C605.302 145.932 610.993 145.567 616.67 145.288Z"
     id="path41" />
  <path
     transform="scale(1.15918 1.15918)"
     d="M571.851 231.422C572.706 231.605 573.507 231.775 574.29 232.181C576.136 233.138 577.548 234.748 578.147 236.751Q578.253 237.111 578.322 237.48Q578.392 237.849 578.424 238.223Q578.456 238.597 578.451 238.972Q578.445 239.348 578.403 239.721Q578.36 240.094 578.28 240.46Q578.2 240.827 578.084 241.184Q577.967 241.541 577.816 241.885Q577.665 242.228 577.48 242.555C576.214 244.774 574.522 245.503 572.145 246.133L571.697 246.027C569.243 245.417 566.475 244.262 565.276 241.844C564.451 240.181 564.355 238.571 565.075 236.869C566.344 233.874 569.057 232.651 571.851 231.422Z"
     id="path42" />
  <path
     transform="scale(1.15918 1.15918)"
     d="M533.076 257.001C534.112 257.14 535.217 257.31 536.203 257.662C538.268 258.4 540.171 260.201 541.06 262.199C541.839 263.946 541.907 265.956 541.149 267.722C540.123 270.11 538.192 271.126 535.913 272.096C535.116 272.054 534.289 272.015 533.509 271.84C531.629 271.419 529.837 270.133 528.789 268.529C527.684 266.839 527.46 264.882 527.908 262.93C528.608 259.883 530.522 258.527 533.076 257.001Z"
     id="path43" />
  <path
     transform="scale(1.15918 1.15918)"
     d="M731.478 220.475C734.089 220.374 736.706 220.504 738.685 222.456C739.906 223.66 740.443 225.203 740.41 226.902C740.34 230.577 738.134 233.204 735.585 235.586C734.67 235.717 733.686 235.854 732.762 235.783C731.174 235.66 729.495 234.593 728.508 233.381C727.005 231.533 726.645 229.055 727.02 226.754C727.512 223.732 729.019 222.131 731.478 220.475Z"
     id="path44" />
  <path
     fill="#52B1DB"
     transform="scale(1.15918 1.15918)"
     d="M961.735 778.689C966.032 778.307 970.859 778.272 975.136 778.929C977.114 779.232 979.175 779.795 980.349 781.544C980.923 782.399 980.986 783.621 980.743 784.611C979.635 789.124 974.509 793.496 971.301 796.703Q965.895 802.143 960.161 807.238Q954.428 812.333 948.391 817.063Q942.353 821.793 936.034 826.139Q929.714 830.486 923.138 834.433Q919.189 836.897 915.174 839.252Q911.16 841.606 907.082 843.85Q903.004 846.093 898.866 848.224Q894.728 850.355 890.533 852.371Q886.338 854.388 882.089 856.288Q877.84 858.189 873.541 859.972Q869.242 861.755 864.895 863.42Q860.549 865.084 856.158 866.629Q851.767 868.173 847.336 869.597Q842.905 871.02 838.436 872.322Q833.967 873.623 829.464 874.801Q824.961 875.979 820.428 877.033Q815.895 878.088 811.334 879.017Q806.773 879.946 802.189 880.75Q797.604 881.554 792.999 882.231Q788.395 882.909 783.773 883.46C736.277 889.036 687.406 884.695 639.749 882.945Q528.881 879.715 418.122 873.817L333.315 870.593Q243.558 866.626 153.911 860.657L98.8871 856.601C81.8583 855.291 63.5715 854.242 46.9742 850.125C44.4385 849.496 40.3775 848.418 39.1731 845.816C38.4906 844.341 38.5831 842.601 39.0944 841.097C43.2658 828.823 82.5258 812.083 94.8248 806.384C130.942 789.638 144.916 789.859 184.045 794.087C185.098 797.924 186.551 801.461 188.32 805.026C200.665 829.897 224.379 849.508 250.651 858.126C276.461 866.593 317.108 869.56 341.726 856.853C347.346 853.952 351.783 849.916 353.648 843.704C357.597 830.546 350.319 816.219 344.294 804.888C358.001 805.359 371.795 807.107 385.499 808Q435.62 810.936 485.684 814.711C509.887 816.543 534.258 816.962 558.411 819.073C557.172 825.287 556.275 831.701 557.764 837.957C559.233 844.126 562.873 848.573 568.212 851.838C592.85 866.906 653.422 869.459 681.942 867.535Q689.105 867.06 696.2 865.961Q703.294 864.862 710.265 863.147C719.523 860.857 732.889 856.948 737.976 848.082C742.167 840.776 740.269 832.343 738.362 824.692Q764.417 826.558 790.501 827.96C803.153 828.76 817.901 831.324 830.394 829.224C839.882 827.629 849.202 822.513 857.997 818.695Q878.486 809.677 898.881 800.447C918.664 791.558 939.914 780.911 961.735 778.689Z"
     id="path45" />
  <path
     fill="#6e7f92"
     transform="scale(1.15918)"
     d="m 349.663,360.323 c 1.768,0.607 12.248,10.413 14.982,12.532 5.82267,4.512 11.83433,8.75633 18.035,12.733 6.2,3.97733 12.56467,7.67133 19.094,11.082 46.242,23.992 107.174,42.993 159.038,48.106 13.49533,1.20067 27.01367,1.57467 40.555,1.122 11.671,-0.286 26.26687,-0.32389 38.02396,-1.48691 10.37288,-1.07787 3.16822,-0.122 10.18827,-0.71824 l 5.78526,0.0574 c 5.42,0.01 3.32542,0.21302 10.93551,-0.53224 12.24,-2.593 21.277,-6.248 32.273,-12.185 3.38,10.19 5.02,21.59 6.697,32.174 8.557,53.995 8.157,115.714 -7.513,168.404 -9.189,30.899 -25.782,51.435 -54.293,66.787 -63.634,34.264 -202.557,28.876 -270.034,8.701 -38.281,-11.445 -77.646,-30.564 -108.042,-56.788 -7.536,-6.5 -15.483,-14.111 -20.193,-23.004 -14.931,-28.191 -10.466,-70.806 -1.393,-100.427 7.465,-23.696 19.706,-44.833 33.731,-65.172 -2.223,9.744 -4.351,19.592 -5.627,29.512 -1.15133,8.618 -1.58067,17.27167 -1.288,25.961 0.771,23.89 7.208,66.469 21.877,85.186 5.362,6.842 11.077,8.164 19.271,9.214 2.115,8.498 4.485,17.025 7.633,25.204 5.146,13.368 14.401,29.575 28.151,35.593 9.097,3.982 17.548,1.828 26.308,-1.619 4.777,2.469 9.444,3.271 14.762,2.691 11.38,-1.242 26.425,-7.64 33.522,-16.957 5.621,-7.378 5.161,-15.792 4.047,-24.447 5.781,-2.832 11.965,-6.839 14.695,-12.91 1.838,-4.086 1.721,-8.501 0.101,-12.634 -5.14,-13.116 -20.708,-21.251 -32.86,-26.403 1.785,-9.394 0.919,-17.764 -0.013,-27.176 -1.937,-19.565 -3.407,-38.569 3.318,-57.515 9.367,-8.393 20.624,-13.773 29.291,-23.201 -9.582,3.078 -17.503,8.515 -25.906,13.881 4.415,-9.597 10.848,-18.492 16.709,-27.245 -5.078,2.441 -9.126,5.201 -12.721,9.57 -22.763,27.663 -18.711,61.561 -15.712,94.343 0.488,5.335 0.868,12.489 -2.839,16.741 -14.125,16.205 -59.593,26.022 -81.075,27.312 -6.8,0.409 -13.655,0.193 -18.95,-4.732 -15.15,-14.089 -22.786,-64.768 -23.306,-85.956 -1.172,-47.744 15.916,-89.207 45.673,-125.929 8.471,-10.454 17.812,-20.12 27.069,-29.869 z"
     id="path46"
     sodipodi:nodetypes="ccccccccccccccccccccccccccccccccccccccsccccccc" />
</svg>
