<?xml version="1.0" standalone="no"?>
<!DOCTYPE svg PUBLIC "-//W3C//DTD SVG 20010904//EN"
 "http://www.w3.org/TR/2001/REC-SVG-20010904/DTD/svg10.dtd">
<svg version="1.0" xmlns="http://www.w3.org/2000/svg"
 width="700.000000pt" height="700.000000pt" viewBox="0 0 700.000000 700.000000"
 preserveAspectRatio="xMidYMid meet">
<metadata>
Created by potrace 1.14, written by Peter Selinger 2001-2017
</metadata>
<g transform="translate(0.000000,700.000000) scale(0.100000,-0.100000)"
fill="#000000" stroke="none">
<path d="M3737 6674 c-186 -29 -317 -73 -451 -152 -89 -54 -215 -167 -283
-254 -51 -67 -115 -185 -134 -247 -10 -35 -18 -43 -56 -57 -71 -27 -113 -92
-99 -150 7 -27 42 -68 66 -76 10 -3 0 -43 -42 -168 -66 -195 -109 -354 -138
-505 -11 -60 -23 -118 -26 -127 -3 -10 -31 -25 -69 -38 -158 -53 -222 -163
-163 -284 l21 -44 -95 -101 c-121 -129 -193 -229 -261 -366 -30 -60 -99 -175
-152 -255 -113 -169 -181 -304 -233 -463 l-37 -114 -60 33 c-80 44 -174 68
-234 59 -108 -15 -199 -78 -249 -172 -55 -105 -63 -228 -21 -350 82 -240 372
-379 577 -276 31 15 61 30 66 32 14 6 0 -258 -18 -324 -42 -154 -140 -298
-284 -418 -103 -86 -124 -120 -121 -189 l3 -52 -159 3 c-91 1 -181 -2 -209 -9
-127 -28 -419 -159 -541 -242 -86 -58 -108 -89 -113 -157 -8 -136 79 -175 448
-200 267 -19 575 -43 578 -45 1 -2 -16 -22 -38 -45 -71 -74 -85 -112 -85 -226
1 -121 19 -169 95 -249 74 -78 131 -101 250 -101 83 0 103 4 155 28 32 15 74
39 93 53 39 30 98 117 108 159 9 41 22 55 49 55 46 0 153 41 198 75 53 40 92
101 103 159 l7 39 116 -7 c308 -18 740 -36 1071 -46 201 -6 451 -15 555 -18
l190 -7 -40 -22 c-64 -34 -118 -86 -145 -139 -33 -66 -40 -176 -15 -241 78
-203 393 -267 588 -118 47 36 101 112 112 158 7 26 9 27 76 27 159 0 268 120
243 269 l-10 58 201 6 c225 8 355 24 530 66 404 99 770 282 997 499 140 135
171 213 107 273 -89 83 -251 61 -564 -78 -99 -44 -256 -113 -350 -153 l-170
-73 -160 7 c-365 14 -478 23 -486 39 -41 73 -152 166 -228 192 l-49 16 29 92
c105 335 111 636 18 819 -18 35 -18 38 0 89 16 47 22 54 57 66 102 34 155 114
162 243 3 54 14 112 30 160 19 59 26 102 30 202 10 270 -63 544 -205 767 -34
53 -34 54 -19 92 29 71 16 153 -33 215 l-20 25 45 69 c38 60 104 202 104 227
0 4 31 23 69 40 125 59 212 161 240 284 13 53 13 207 2 268 l-9 44 107 -6
c262 -14 516 -99 768 -258 51 -32 93 -56 93 -54 0 12 -156 119 -247 170 -186
104 -382 160 -609 173 l-117 7 -32 85 c-23 59 -29 87 -21 92 17 10 151 36 246
47 263 33 676 -8 875 -87 28 -11 74 -29 103 -41 72 -29 65 -16 -10 19 -108 48
-236 89 -362 116 -231 49 -582 44 -797 -12 -80 -20 -82 -19 -118 32 -46 64
-124 139 -187 181 -53 35 -54 37 -47 72 5 20 8 79 8 131 0 84 -3 102 -28 152
-36 73 -92 130 -165 167 -41 20 -78 51 -118 96 -189 216 -523 321 -857 269z
m358 -49 c159 -25 288 -82 379 -167 l51 -46 -55 14 c-65 17 -75 17 -139 3 -45
-9 -139 -64 -129 -75 3 -2 34 8 69 22 55 22 75 26 139 22 41 -3 88 -12 104
-20 l30 -16 -52 -11 c-76 -16 -123 -43 -175 -101 l-47 -52 -107 -1 -107 -2
-39 42 c-87 95 -197 138 -331 131 -134 -7 -248 -76 -326 -198 -27 -42 -37 -50
-78 -59 -26 -5 -119 -32 -206 -60 -88 -28 -161 -49 -163 -47 -7 6 44 112 82
172 145 228 405 396 692 448 104 19 296 19 408 1z m-222 -322 c115 -54 185
-145 194 -254 12 -127 -22 -176 -159 -227 -103 -39 -189 -90 -245 -144 -40
-40 -42 -40 -80 -28 -95 30 -160 87 -210 183 -24 45 -28 64 -28 142 0 77 4 98
27 147 86 185 315 267 501 181z m812 -16 c59 -30 125 -96 154 -153 39 -79 45
-220 12 -282 -15 -27 -47 -18 -84 25 -46 52 -100 76 -189 81 -43 2 -78 7 -78
11 0 3 7 28 15 54 18 59 10 101 -23 127 -28 23 -41 24 -75 9 -49 -22 -63 -108
-27 -166 l20 -33 -28 -6 c-15 -3 -32 -7 -39 -9 -21 -7 -57 85 -57 145 0 105
64 182 184 221 49 16 162 4 215 -24z m-464 -123 l36 -6 -1 -59 -1 -59 -55 0
c-30 0 -64 -3 -76 -6 -17 -5 -22 1 -31 43 -7 26 -15 56 -18 65 -5 14 1 17 32
21 68 7 78 7 114 1z m268 -43 c7 -13 6 -24 -3 -37 -12 -15 -16 -16 -30 -5 -16
14 -21 42 -9 54 12 13 32 7 42 -12z m-1184 -108 c-4 -38 -8 -68 -9 -68 0 -1
-62 -19 -136 -42 -74 -23 -181 -57 -238 -78 -115 -40 -141 -41 -158 -6 -17 34
1 78 40 98 38 20 459 156 499 162 5 0 5 -29 2 -66z m976 -42 l16 -39 -59 -28
c-33 -16 -77 -47 -98 -70 -78 -84 -76 -172 5 -250 53 -52 116 -74 225 -81 255
-16 440 94 440 262 l0 46 73 -38 c122 -64 224 -183 282 -330 41 -104 42 -99
-13 -106 -46 -5 -137 -36 -129 -43 1 -2 42 4 90 13 48 8 90 14 92 11 3 -3 10
-42 17 -87 39 -276 -112 -486 -358 -499 -133 -7 -228 38 -307 145 l-36 49 40
78 c49 97 52 160 13 292 -25 89 -52 141 -37 74 5 -19 8 -89 8 -156 0 -119 0
-120 -39 -199 -92 -186 -283 -300 -536 -321 -85 -7 -196 12 -266 47 -107 51
-187 173 -219 334 -5 27 -2 32 22 42 l28 11 -27 1 c-28 1 -28 2 -27 69 0 37 8
96 17 132 19 74 13 72 157 57 68 -7 69 -6 32 8 -20 8 -64 17 -97 21 -71 8 -71
10 -12 109 77 128 183 214 322 260 126 42 181 91 195 175 l7 39 56 4 c31 2 68
4 82 5 20 1 28 -6 41 -37z m368 -64 c66 -32 42 -86 -55 -126 -77 -32 -239 -36
-291 -8 -59 32 -31 100 53 127 86 29 240 32 293 7z m-1316 -66 c36 -93 149
-196 249 -225 16 -5 15 -10 -11 -48 -16 -24 -39 -64 -52 -90 l-22 -46 -81 -7
c-169 -13 -401 -73 -474 -121 -44 -30 -3 -29 67 1 94 39 234 74 354 87 59 6
109 9 112 7 2 -3 -2 -29 -10 -59 -8 -30 -17 -91 -21 -136 l-7 -82 -101 -37
c-214 -79 -423 -202 -393 -231 2 -2 41 22 87 53 116 77 349 183 403 183 7 0
19 -31 29 -72 38 -158 111 -249 255 -320 86 -42 88 -45 110 -98 11 -30 28
-104 37 -165 20 -134 32 -152 94 -136 58 16 104 73 135 170 15 43 29 97 33
120 5 32 10 40 23 37 38 -12 322 -28 384 -22 77 7 107 19 107 42 0 13 -7 14
-42 7 -55 -10 -348 -11 -410 0 -27 5 -48 12 -48 17 0 4 21 16 48 26 99 35 149
62 207 110 33 27 68 55 78 63 16 13 23 9 68 -42 28 -31 77 -73 110 -93 32 -20
59 -38 59 -40 0 -1 -7 -33 -16 -71 -21 -91 -15 -183 14 -222 l22 -30 -107 -77
c-130 -92 -139 -96 -278 -124 -130 -26 -177 -23 -320 19 -55 17 -183 49 -285
71 -449 101 -775 248 -1064 480 -42 34 -76 65 -76 70 0 4 9 61 20 127 31 180
84 387 159 613 l67 205 39 14 c126 44 402 130 414 128 8 -1 23 -26 34 -56z
m-775 -1034 c37 -66 96 -118 232 -209 280 -185 632 -323 990 -387 63 -11 147
-31 187 -45 129 -44 219 -59 307 -53 149 12 244 54 413 184 51 40 87 61 97 57
8 -3 23 -26 32 -50 48 -127 -44 -243 -222 -278 -124 -25 -595 -42 -739 -27
-328 35 -708 147 -1020 301 -193 95 -300 164 -380 244 -101 101 -119 174 -58
238 24 26 105 76 125 78 3 0 20 -24 36 -53z m2323 -127 c17 0 17 -3 5 -37 -40
-113 -110 -233 -136 -233 -21 0 -32 111 -20 197 l12 86 61 -7 c33 -3 68 -6 78
-6z m-786 -57 c-11 -62 -55 -185 -81 -231 -29 -50 -65 -72 -88 -53 -8 7 -18
38 -21 69 -4 31 -16 97 -26 147 -10 49 -19 90 -19 92 0 2 66 6 194 11 l48 2
-7 -37z m-2629 -1343 c97 -47 97 -48 95 -202 -2 -148 14 -251 55 -353 l25 -60
-33 -28 c-43 -36 -97 -50 -183 -45 -132 6 -275 100 -336 220 -155 304 89 607
377 468z m1375 -311 c66 -35 125 -94 135 -135 9 -34 -16 -85 -48 -102 -23 -13
-28 -11 -78 38 -29 28 -55 49 -57 46 -3 -2 9 -25 27 -50 60 -89 74 -150 45
-206 -13 -25 -63 -70 -78 -70 -3 0 -27 41 -53 90 -26 50 -56 98 -67 107 -18
17 -18 16 -11 -12 4 -16 24 -67 46 -112 21 -46 38 -87 38 -92 0 -12 -71 -31
-115 -31 -48 0 -81 34 -116 121 -29 70 -53 91 -42 37 3 -18 19 -59 34 -90 29
-57 29 -57 7 -64 -35 -11 -95 -6 -125 10 -72 37 -140 143 -182 280 -12 37 -21
71 -21 76 0 4 33 10 73 13 145 13 341 75 452 145 28 18 56 32 64 32 7 0 40
-14 72 -31z m2135 -45 c-7 -60 -26 -105 -60 -142 -18 -21 -66 -52 -80 -52 -2
0 2 23 9 52 8 28 19 84 26 125 l12 73 50 0 50 0 -7 -56z m-3103 -469 c191
-145 491 -284 765 -355 l43 -11 -18 -31 c-31 -53 -192 -216 -277 -279 -44 -34
-107 -74 -138 -90 l-58 -29 -62 22 c-50 17 -85 22 -173 22 -119 0 -200 -17
-291 -60 -88 -42 -82 -54 12 -23 181 61 375 62 486 2 102 -55 195 -196 205
-310 5 -53 3 -62 -20 -89 -39 -46 -114 -65 -284 -71 -178 -7 -286 15 -426 85
-77 38 -108 61 -188 141 -103 104 -140 164 -161 264 -15 71 -11 78 130 200
115 100 176 173 226 273 60 121 71 172 71 336 l-1 147 56 -54 c30 -30 76 -70
103 -90z m2913 -27 c15 -58 19 -109 19 -248 -1 -188 -9 -236 -75 -452 l-31
-98 -89 0 c-109 0 -196 -26 -265 -78 -75 -57 -65 -65 27 -23 130 60 233 75
350 50 153 -33 282 -165 282 -291 0 -36 -6 -54 -24 -73 -59 -62 -275 -101
-515 -91 -333 13 -553 65 -592 139 -18 36 -13 116 12 187 61 174 88 369 66
493 -6 37 -14 73 -17 80 -3 10 20 18 91 30 176 31 373 107 491 187 72 50 156
134 199 199 22 33 43 61 46 61 4 0 15 -33 25 -72z m-1856 -378 c226 -33 519
-45 751 -31 111 6 204 10 207 7 11 -11 21 -96 22 -178 0 -97 -17 -200 -55
-324 -23 -77 -28 -84 -48 -79 -12 3 -150 12 -307 20 -157 8 -406 24 -555 35
-148 11 -349 23 -445 26 l-175 6 -42 41 c-24 23 -43 44 -43 48 0 4 30 25 68
47 141 85 305 236 391 360 34 49 38 52 69 47 18 -3 91 -15 162 -25z m3763
-387 c31 -18 -22 -87 -153 -197 -329 -276 -777 -461 -1224 -506 -139 -14 -477
-14 -789 0 -133 5 -431 17 -662 25 -231 8 -503 20 -605 25 -102 6 -408 19
-680 30 -690 28 -1298 61 -1805 100 -476 37 -534 51 -494 127 34 64 394 247
585 298 62 17 246 21 339 9 l50 -7 39 -81 c74 -153 251 -302 426 -357 137 -43
323 -59 448 -39 138 23 211 61 243 128 27 55 20 124 -22 212 l-30 63 98 -6
c54 -4 265 -18 468 -32 322 -22 836 -54 873 -55 8 0 12 -22 12 -75 0 -69 2
-77 32 -110 38 -44 84 -68 179 -95 205 -57 602 -73 793 -32 120 25 201 63 227
106 16 25 19 45 17 99 l-4 68 56 -5 c30 -3 102 -8 160 -11 58 -3 160 -11 226
-16 83 -7 139 -7 177 0 32 6 176 64 334 135 382 171 428 188 540 205 53 8 127
5 146 -6z m31 -124 c-16 -28 -64 -84 -107 -125 -282 -266 -828 -491 -1292
-535 -149 -14 -1402 -7 -1900 11 -892 31 -2554 126 -2893 166 -151 17 -205 33
-244 71 -32 30 -38 59 -10 48 88 -34 352 -61 962 -99 669 -42 850 -51 2145
-106 1333 -56 1809 -66 1995 -42 322 42 589 132 876 296 173 99 266 167 384
283 58 56 106 98 108 93 2 -5 -9 -33 -24 -61z m-5199 -682 c21 -12 53 -41 69
-65 25 -35 31 -55 34 -110 4 -82 -16 -121 -79 -153 -128 -65 -269 24 -269 171
0 79 44 148 110 173 35 13 97 6 135 -16z m3052 -58 l-38 -20 -32 20 -32 21 70
-1 70 0 -38 -20z m-258 -98 c19 -10 48 -34 65 -55 39 -48 48 -141 18 -196 -23
-44 -108 -90 -166 -90 -114 1 -211 109 -192 213 23 122 160 185 275 128z"/>
<path d="M3595 6046 c-47 -47 -21 -157 41 -172 22 -6 32 -2 50 20 34 38 40 87
18 133 -25 50 -70 58 -109 19z m91 -21 c4 -8 3 -23 0 -32 -6 -15 -8 -15 -22
-2 -8 9 -12 23 -8 32 8 21 23 22 30 2z"/>
<path d="M4982 5478 c-7 -7 -12 -24 -12 -38 0 -47 49 -68 76 -32 28 36 11 82
-31 82 -12 0 -26 -5 -33 -12z"/>
<path d="M3882 5404 c-33 -23 -26 -65 12 -79 24 -8 31 -6 47 14 24 29 24 36
-1 61 -24 24 -29 24 -58 4z"/>
<path d="M3622 5228 c-7 -7 -12 -24 -12 -38 0 -31 17 -50 45 -50 28 0 45 19
45 50 0 31 -17 50 -45 50 -12 0 -26 -5 -33 -12z"/>
<path d="M1430 710 c-24 -45 25 -87 62 -53 22 20 23 37 2 57 -21 22 -51 20
-64 -4z"/>
<path d="M4208 565 c-21 -47 39 -76 66 -32 9 15 7 22 -13 38 -30 25 -39 24
-53 -6z"/>
</g>
</svg>
